<svg width="512" height="512" viewBox="0 0 512 512" fill="none" xmlns="http://www.w3.org/2000/svg">
<path d="M156 194V148.581C156 126.679 166.483 105.674 185.143 90.1873C203.803 74.7004 229.111 66 255.5 66C281.889 66 307.197 74.7004 325.857 90.1873C344.517 105.674 355 126.679 355 148.581V194" stroke="#1565C0" stroke-width="6" stroke-linecap="round" stroke-linejoin="round"/>
<path d="M389.5 199H122.5C97.9233 199 78 215.655 78 236.2V409.8C78 430.345 97.9233 447 122.5 447H389.5C414.077 447 434 430.345 434 409.8V236.2C434 215.655 414.077 199 389.5 199Z" stroke="#1565C0" stroke-width="8"/>
<path d="M255 325C264.941 325 273 318.284 273 310C273 301.716 264.941 295 255 295C245.059 295 237 301.716 237 310C237 318.284 245.059 325 255 325Z" fill="#1565C0"/>
<path d="M263 314.25C263 310.798 259.642 308 255.5 308C251.358 308 248 310.798 248 314.25V331.75C248 335.202 251.358 338 255.5 338C259.642 338 263 335.202 263 331.75V314.25Z" fill="#1565C0"/>
<path d="M156 392H153V395H156V392ZM357 395C358.657 395 360 393.657 360 392C360 390.343 358.657 389 357 389V392V395ZM156 172H153V392H156H159V172H156ZM156 392V395H357V392V389H156V392Z" fill="#1565C0"/>
</svg>
